<svg version="1.1" id="Icons" xmlns="http://www.w3.org/2000/svg" xmlns:xlink="http://www.w3.org/1999/xlink"
	height="24px" viewBox="0 0 24 24" width="24px"  fill="none" stroke="white">
<line x1="3" y1="11" x2="29" y2="11"/>
<circle cx="7" cy="8" r="1"/>
<circle cx="10" cy="8" r="1"/>
<circle cx="13" cy="8" r="1"/>
<path  stroke-linecap="round" stroke-linejoin="round" stroke-width="2" d="M27,5H5C3.9,5,3,5.9,3,7v18c0,1.1,0.9,2,2,2h22c1.1,0,2-0.9,2-2V7C29,5.9,28.1,5,27,5z"/>
<polyline points="11,16 8,19 11,22 "/>
<polyline points="21,16 24,19 21,22 "/>
<line x1="18" y1="15" x2="14" y2="23"/>
</svg>